<?xml version="1.0" encoding="utf-8"?>
<!-- Generator: Adobe Illustrator 26.4.1, SVG Export Plug-In . SVG Version: 6.00 Build 0)  -->
<svg version="1.1" id="_Слой_1" xmlns="http://www.w3.org/2000/svg" xmlns:xlink="http://www.w3.org/1999/xlink" x="0px"
	 y="0px" viewBox="0 0 343 261.1" style="enable-background:new 0 0 343 261.1;" xml:space="preserve">
<style type="text/css">
	.st0{clip-path:url(#SVGID_00000153696066465810445420000012466581627362270880_);}
	.st1{fill:url(#SVGID_00000094594727407622244050000010593576552460906894_);}
	.st2{clip-path:url(#SVGID_00000079486014896416876850000006665713564615979159_);}
	.st3{fill:url(#SVGID_00000134934393317400614790000009837247578357707650_);}
	.st4{clip-path:url(#SVGID_00000075154694088842001560000004369689745152767111_);}
	.st5{fill:url(#SVGID_00000131353975112775017170000016035182430150612113_);}
</style>
<g>
	<defs>
		<path id="SVGID_1_" d="M148.4,208.5c-66.6-5-101.4-23.4-104.4-55.1c-0.6-24.8-3.3-44.8-8.2-60.1c32.3,0.7,52.5,10.9,60.4,30.8
			c13-23-18.2-37.9-93.7-44.8c6.5,1,12.2,4.3,15.9,9.1c3.6,4.8,3.2,9,3.4,16.1C0,281.1,236.6,172.2,201.9,241.8
			c0.9,2.6,3.7,4.3,6.8,4.2C234.8,245.5,220.4,208.9,148.4,208.5"/>
	</defs>
	<clipPath id="SVGID_00000020399086206049283450000005415309519088438929_">
		<use xlink:href="#SVGID_1_"  style="overflow:visible;"/>
	</clipPath>
	<g style="clip-path:url(#SVGID_00000020399086206049283450000005415309519088438929_);">
		
			<linearGradient id="SVGID_00000004519459114583179900000000661767841477974450_" gradientUnits="userSpaceOnUse" x1="50.0125" y1="19.6273" x2="240.4225" y2="198.6473" gradientTransform="matrix(1 0 0 -1 0 264)">
			<stop  offset="0" style="stop-color:#008B31"/>
			<stop  offset="1" style="stop-color:#ECBF45"/>
		</linearGradient>
		<rect y="79.2" style="fill:url(#SVGID_00000004519459114583179900000000661767841477974450_);" width="236.6" height="201.9"/>
	</g>
</g>
<g>
	<defs>
		<path id="SVGID_00000183245345490490151810000017548138660094329249_" d="M115.6,110c-1,43.4,22.3,82.2,56.5,94.1
			c-21.4-33.2-23.3-70.7-5.7-112.7c7.7-14.6,11.3-26.7,10.8-36.3c7.1,15.2,6,35.2-3.2,59.8c-9.8,43.3-3.8,72.7,18.2,88.2
			c24.4-22.9,37.2-59.6,34.1-96.9s-22-69.9-49.8-86.2C141.7,29.5,116.7,66.5,115.6,110"/>
	</defs>
	<clipPath id="SVGID_00000013881829358874300650000006087481280940262845_">
		<use xlink:href="#SVGID_00000183245345490490151810000017548138660094329249_"  style="overflow:visible;"/>
	</clipPath>
	<g style="clip-path:url(#SVGID_00000013881829358874300650000006087481280940262845_);">
		
			<linearGradient id="SVGID_00000133519729858324199790000013857777332835045534_" gradientUnits="userSpaceOnUse" x1="43.7018" y1="31.2881" x2="234.1518" y2="210.3481" gradientTransform="matrix(1 0 0 -1 0 264)">
			<stop  offset="0" style="stop-color:#008B31"/>
			<stop  offset="1" style="stop-color:#ECBF45"/>
		</linearGradient>
		
			<rect x="114.6" y="20" style="fill:url(#SVGID_00000133519729858324199790000013857777332835045534_);" width="114.9" height="184.1"/>
	</g>
</g>
<g>
	<defs>
		<path id="SVGID_00000152946664801649938900000010562102484630513818_" d="M194.6,208.5c66.6-5,101.4-23.4,104.5-55.1
			c0.6-24.8,3.3-44.8,8.2-60.1c-32.3,0.7-52.4,10.9-60.4,30.8c-13-23,18.3-37.9,93.7-44.8c-6.5,1-12.2,4.3-15.9,9.1
			c-3.6,4.8-3.2,9-3.4,16.1c21.7,176.7-214.9,67.8-180.2,137.4c-0.9,2.6-3.7,4.3-6.8,4.2C108.2,245.5,122.6,208.9,194.6,208.5"/>
	</defs>
	<clipPath id="SVGID_00000088833538955638393230000006302605152869710006_">
		<use xlink:href="#SVGID_00000152946664801649938900000010562102484630513818_"  style="overflow:visible;"/>
	</clipPath>
	<g style="clip-path:url(#SVGID_00000088833538955638393230000006302605152869710006_);">
		
			<linearGradient id="SVGID_00000012473389515981507250000003689860163398561414_" gradientUnits="userSpaceOnUse" x1="103.8335" y1="-29.7937" x2="294.2335" y2="149.2263" gradientTransform="matrix(1 0 0 -1 0 264)">
			<stop  offset="0" style="stop-color:#008B31"/>
			<stop  offset="1" style="stop-color:#ECBF45"/>
		</linearGradient>
		
			<rect x="106.4" y="79.2" style="fill:url(#SVGID_00000012473389515981507250000003689860163398561414_);" width="236.6" height="201.9"/>
	</g>
</g>
</svg>
